<?xml version="1.0" encoding="UTF-8" standalone="no"?>
<!DOCTYPE svg PUBLIC "-//W3C//DTD SVG 1.1//EN"
 "http://www.w3.org/Graphics/SVG/1.1/DTD/svg11.dtd">
<!-- Generated by graphviz version 2.40.1 (20161225.0304)
 -->
<!-- Title: dependencies Pages: 1 -->
<svg width="850pt" height="284pt"
 viewBox="0.00 0.00 850.00 284.00" xmlns="http://www.w3.org/2000/svg" xmlns:xlink="http://www.w3.org/1999/xlink">
<g id="graph0" class="graph" transform="scale(1 1) rotate(0) translate(4 280)">
<title>dependencies</title>
<polygon fill="#ffffff" stroke="transparent" points="-4,4 -4,-280 846,-280 846,4 -4,4"/>
<text text-anchor="start" x="400.0091" y="-42.4" font-family="sans-serif" font-weight="bold" font-size="14.00" fill="#000000">Legend</text>
<polygon fill="#ffffb3" stroke="transparent" points="187,-10 187,-30 207,-30 207,-10 187,-10"/>
<text text-anchor="start" x="210.629" y="-15.4" font-family="sans-serif" font-size="14.00" fill="#000000"> &#160;Declarations</text>
<polygon fill="#8dd3c7" stroke="transparent" points="300,-10 300,-30 320,-30 320,-10 300,-10"/>
<text text-anchor="start" x="323.7251" y="-15.4" font-family="sans-serif" font-size="14.00" fill="#000000"> &#160;Module</text>
<polygon fill="#80b1d3" stroke="transparent" points="386,-10 386,-30 406,-30 406,-10 386,-10"/>
<text text-anchor="start" x="409.7812" y="-15.4" font-family="sans-serif" font-size="14.00" fill="#000000"> &#160;Bootstrap</text>
<polygon fill="#fdb462" stroke="transparent" points="483,-10 483,-30 503,-30 503,-10 483,-10"/>
<text text-anchor="start" x="506.6732" y="-15.4" font-family="sans-serif" font-size="14.00" fill="#000000"> &#160;Providers</text>
<polygon fill="#fb8072" stroke="transparent" points="579,-10 579,-30 599,-30 599,-10 579,-10"/>
<text text-anchor="start" x="602.7258" y="-15.4" font-family="sans-serif" font-size="14.00" fill="#000000"> &#160;Exports</text>
<g id="clust1" class="cluster">
<title>cluster_AppModule</title>
<polygon fill="none" stroke="#000000" stroke-dasharray="1,5" points="8,-70 8,-268 834,-268 834,-70 8,-70"/>
</g>
<g id="clust2" class="cluster">
<title>cluster_AppModule_declarations</title>
<polygon fill="none" stroke="#000000" points="362,-78 362,-130 826,-130 826,-78 362,-78"/>
</g>
<g id="clust6" class="cluster">
<title>cluster_AppModule_imports</title>
<polygon fill="none" stroke="#000000" points="16,-78 16,-130 354,-130 354,-78 16,-78"/>
</g>
<g id="clust8" class="cluster">
<title>cluster_AppModule_bootstrap</title>
<polygon fill="none" stroke="#000000" points="288,-208 288,-260 454,-260 454,-208 288,-208"/>
</g>
<!-- AppComponent -->
<g id="node1" class="node">
<title>AppComponent</title>
<polygon fill="#ffffb3" stroke="#000000" points="817.9399,-122 712.0601,-122 712.0601,-86 817.9399,-86 817.9399,-122"/>
<text text-anchor="middle" x="765" y="-99.8" font-family="Times,serif" font-size="14.00" fill="#000000">AppComponent</text>
</g>
<!-- AppModule -->
<g id="node4" class="node">
<title>AppModule</title>
<polygon fill="#8dd3c7" stroke="#000000" points="412.6571,-187 409.6571,-191 388.6571,-191 385.6571,-187 329.3429,-187 329.3429,-151 412.6571,-151 412.6571,-187"/>
<text text-anchor="middle" x="371" y="-164.8" font-family="Times,serif" font-size="14.00" fill="#000000">AppModule</text>
</g>
<!-- AppComponent&#45;&gt;AppModule -->
<g id="edge1" class="edge">
<title>AppComponent&#45;&gt;AppModule</title>
<path fill="none" stroke="#000000" d="M765,-122.2843C765,-143.3211 765,-175 765,-175 765,-175 422.7919,-175 422.7919,-175"/>
<polygon fill="#000000" stroke="#000000" points="422.7919,-171.5001 412.7919,-175 422.7919,-178.5001 422.7919,-171.5001"/>
</g>
<!-- ProductListComponent -->
<g id="node2" class="node">
<title>ProductListComponent</title>
<polygon fill="#ffffb3" stroke="#000000" points="694.1596,-122 547.8404,-122 547.8404,-86 694.1596,-86 694.1596,-122"/>
<text text-anchor="middle" x="621" y="-99.8" font-family="Times,serif" font-size="14.00" fill="#000000">ProductListComponent</text>
</g>
<!-- ProductListComponent&#45;&gt;AppModule -->
<g id="edge2" class="edge">
<title>ProductListComponent&#45;&gt;AppModule</title>
<path fill="none" stroke="#000000" d="M621,-122.0225C621,-139.3734 621,-163 621,-163 621,-163 422.8444,-163 422.8444,-163"/>
<polygon fill="#000000" stroke="#000000" points="422.8444,-159.5001 412.8444,-163 422.8443,-166.5001 422.8444,-159.5001"/>
</g>
<!-- ProductDetailComponent -->
<g id="node3" class="node">
<title>ProductDetailComponent</title>
<polygon fill="#ffffb3" stroke="#000000" points="529.5884,-122 370.4116,-122 370.4116,-86 529.5884,-86 529.5884,-122"/>
<text text-anchor="middle" x="450" y="-99.8" font-family="Times,serif" font-size="14.00" fill="#000000">ProductDetailComponent</text>
</g>
<!-- ProductDetailComponent&#45;&gt;AppModule -->
<g id="edge3" class="edge">
<title>ProductDetailComponent&#45;&gt;AppModule</title>
<path fill="none" stroke="#000000" d="M391.642,-122.1061C391.642,-122.1061 391.642,-140.991 391.642,-140.991"/>
<polygon fill="#000000" stroke="#000000" points="388.1421,-140.9909 391.642,-150.991 395.1421,-140.991 388.1421,-140.9909"/>
</g>
<!-- ProductListComponent  -->
<g id="node8" class="node">
<title>ProductListComponent </title>
<polygon fill="#80b1d3" stroke="#000000" points="446.1593,-252 295.8407,-252 295.8407,-216 446.1593,-216 446.1593,-252"/>
<text text-anchor="middle" x="371" y="-229.8" font-family="Times,serif" font-size="14.00" fill="#000000">ProductListComponent </text>
</g>
<!-- AppModule&#45;&gt;ProductListComponent  -->
<g id="edge7" class="edge">
<title>AppModule&#45;&gt;ProductListComponent </title>
<path fill="none" stroke="#000000" stroke-dasharray="1,5" d="M371,-187.1061C371,-187.1061 371,-205.991 371,-205.991"/>
<polygon fill="#000000" stroke="#000000" points="367.5001,-205.9909 371,-215.991 374.5001,-205.991 367.5001,-205.9909"/>
</g>
<!-- BrowserModule -->
<g id="node5" class="node">
<title>BrowserModule</title>
<polygon fill="#8dd3c7" stroke="#000000" points="346.4734,-122 343.4734,-126 322.4734,-126 319.4734,-122 239.5266,-122 239.5266,-86 346.4734,-86 346.4734,-122"/>
<text text-anchor="middle" x="293" y="-99.8" font-family="Times,serif" font-size="14.00" fill="#000000">BrowserModule</text>
</g>
<!-- BrowserModule&#45;&gt;AppModule -->
<g id="edge4" class="edge">
<title>BrowserModule&#45;&gt;AppModule</title>
<path fill="none" stroke="#000000" d="M337.8293,-122.1061C337.8293,-122.1061 337.8293,-140.991 337.8293,-140.991"/>
<polygon fill="#000000" stroke="#000000" points="334.3293,-140.9909 337.8293,-150.991 341.3293,-140.991 334.3293,-140.9909"/>
</g>
<!-- FormsModule -->
<g id="node6" class="node">
<title>FormsModule</title>
<polygon fill="#8dd3c7" stroke="#000000" points="221.8288,-122 218.8288,-126 197.8288,-126 194.8288,-122 126.1712,-122 126.1712,-86 221.8288,-86 221.8288,-122"/>
<text text-anchor="middle" x="174" y="-99.8" font-family="Times,serif" font-size="14.00" fill="#000000">FormsModule</text>
</g>
<!-- FormsModule&#45;&gt;AppModule -->
<g id="edge5" class="edge">
<title>FormsModule&#45;&gt;AppModule</title>
<path fill="none" stroke="#000000" d="M174,-122.0225C174,-139.3734 174,-163 174,-163 174,-163 319.2214,-163 319.2214,-163"/>
<polygon fill="#000000" stroke="#000000" points="319.2214,-166.5001 329.2214,-163 319.2213,-159.5001 319.2214,-166.5001"/>
</g>
<!-- HttpModule -->
<g id="node7" class="node">
<title>HttpModule</title>
<polygon fill="#8dd3c7" stroke="#000000" points="108.4387,-122 105.4387,-126 84.4387,-126 81.4387,-122 23.5613,-122 23.5613,-86 108.4387,-86 108.4387,-122"/>
<text text-anchor="middle" x="66" y="-99.8" font-family="Times,serif" font-size="14.00" fill="#000000">HttpModule</text>
</g>
<!-- HttpModule&#45;&gt;AppModule -->
<g id="edge6" class="edge">
<title>HttpModule&#45;&gt;AppModule</title>
<path fill="none" stroke="#000000" d="M66,-122.2843C66,-143.3211 66,-175 66,-175 66,-175 319.2306,-175 319.2306,-175"/>
<polygon fill="#000000" stroke="#000000" points="319.2306,-178.5001 329.2306,-175 319.2305,-171.5001 319.2306,-178.5001"/>
</g>
</g>
</svg>
